<svg width="100%" height="100%" id="svg" viewBox="0 0 1440 700" xmlns="http://www.w3.org/2000/svg" class="transition duration-300 ease-in-out delay-150"><defs><linearGradient id="gradient" x1="0%" y1="50%" x2="100%" y2="50%"><stop offset="5%" stop-color="#002bdc66"></stop><stop offset="95%" stop-color="#32ded466"></stop></linearGradient></defs><path d="M 0,700 C 0,700 0,175 0,175 C 25.343359728929727,213.47220673780248 50.68671945785945,251.94441347560496 75,234 C 99.31328054214055,216.05558652439504 122.59648189749191,141.69455283538264 150,128 C 177.4035181025081,114.30544716461738 208.92735295217287,161.2773751828645 228,169 C 247.07264704782713,176.7226248171355 253.69410629381662,145.19594643315943 277,134 C 300.3058937061834,122.80405356684057 340.2962218725609,131.93883908449774 370,148 C 399.7037781274391,164.06116091550226 419.1210062159397,187.04869722884962 439,187 C 458.8789937840603,186.95130277115038 479.2197532636802,163.86637200010372 505,173 C 530.7802467363198,182.13362799989628 561.9999807293399,223.4858147707355 586,230 C 610.0000192706601,236.5141852292645 626.7803238189604,208.19036891695424 651,179 C 675.2196761810396,149.80963108304576 706.8787239948186,119.75270956144755 731,132 C 755.1212760051814,144.24729043855245 771.7047802017646,198.79879283725552 790,208 C 808.2952197982354,217.20120716274448 828.3021551981232,181.0521190895304 854,158 C 879.6978448018768,134.9478809104696 911.086599005743,124.99273080462284 939,125 C 966.913400994257,125.00726919537716 991.3514487789053,134.97695769197827 1013,152 C 1034.6485512210947,169.02304230802173 1053.5076058786353,193.09943842746404 1079,201 C 1104.4923941213647,208.90056157253596 1136.6181277065534,200.6252885981657 1163,192 C 1189.3818722934466,183.3747114018343 1210.0198832951507,174.3994071798731 1234,190 C 1257.9801167048493,205.6005928201269 1285.302339112844,245.77708268234184 1307,233 C 1328.697660887156,220.22291731765816 1344.770760253473,154.49226209075948 1366,136 C 1387.229239746527,117.50773790924053 1413.6146198732636,146.25386895462026 1440,175 C 1440,175 1440,700 1440,700 Z" stroke="none" stroke-width="0" fill="url(#gradient)" class="transition-all duration-300 ease-in-out delay-150 path-0" transform="rotate(-180 720 350)"></path><defs><linearGradient id="gradient" x1="0%" y1="50%" x2="100%" y2="50%"><stop offset="5%" stop-color="#002bdc88"></stop><stop offset="95%" stop-color="#32ded488"></stop></linearGradient></defs><path d="M 0,700 C 0,700 0,350 0,350 C 26.73778694330612,316.26545430930423 53.47557388661224,282.5309086186084 80,304 C 106.52442611338776,325.4690913813916 132.83549139685715,402.14181983487055 153,413 C 173.16450860314285,423.85818016512945 187.18246052595924,368.9018120419093 210,361 C 232.81753947404076,353.0981879580907 264.4346664993058,392.2509319974923 288,398 C 311.5653335006942,403.7490680025077 327.07887347681753,376.09445996812155 352,379 C 376.92112652318247,381.90554003187845 411.24983959342427,415.3712281300215 440,408 C 468.75016040657573,400.6287718699785 491.9217681494854,352.42062751179236 513,353 C 534.0782318505146,353.57937248820764 553.0630878086344,402.946261822809 572,386 C 590.9369121913656,369.053738177191 609.8258806159769,285.7943251969716 638,292 C 666.1741193840231,298.2056748030284 703.6333897274578,393.8764373893045 730,409 C 756.3666102725422,424.1235626106955 771.640560474192,358.6999252458104 794,329 C 816.359439525808,299.3000747541896 845.8043683757745,305.323861627454 868,309 C 890.1956316242255,312.676138372546 905.1419660227107,314.0046282443736 931,332 C 956.8580339772893,349.9953717556264 993.6277675333829,384.6576253950518 1016,402 C 1038.372232466617,419.3423746049482 1046.3469638437568,419.3648701754191 1068,388 C 1089.6530361562432,356.6351298245809 1124.98437709159,293.8828939032717 1152,294 C 1179.01562290841,294.1171060967283 1197.715527789883,357.1035542114942 1224,377 C 1250.284472210117,396.8964457885058 1284.1535117488777,373.7028892507515 1305,354 C 1325.8464882511223,334.2971107492485 1333.6704252146062,318.0848887854996 1354,318 C 1374.3295747853938,317.9151112145004 1407.1647873926968,333.95755560725024 1440,350 C 1440,350 1440,700 1440,700 Z" stroke="none" stroke-width="0" fill="url(#gradient)" class="transition-all duration-300 ease-in-out delay-150 path-1" transform="rotate(-180 720 350)"></path><defs><linearGradient id="gradient" x1="0%" y1="50%" x2="100%" y2="50%"><stop offset="5%" stop-color="#002bdcff"></stop><stop offset="95%" stop-color="#32ded4ff"></stop></linearGradient></defs><path d="M 0,700 C 0,700 0,525 0,525 C 29.12193924865936,554.8168370456892 58.24387849731872,584.6336740913786 80,580 C 101.75612150268128,575.3663259086214 116.14642525938447,536.2821406801748 140,532 C 163.85357474061553,527.7178593198252 197.1704204651433,558.2377631879217 223,550 C 248.8295795348567,541.7622368120783 267.17189288004226,494.7668065681381 290,504 C 312.82810711995774,513.2331934318619 340.14200801468775,578.6950105395258 364,574 C 387.85799198531225,569.3049894604742 408.2600750612069,494.4531512737583 433,483 C 457.7399249387931,471.5468487262417 486.8176917404845,523.492384365441 514,543 C 541.1823082595155,562.507615634559 566.4691579768552,549.5773112644778 586,532 C 605.5308420231448,514.4226887355222 619.3056763520947,492.198370576648 639,495 C 658.6943236479053,497.801629423352 684.3081366147663,525.6292064289303 709,546 C 733.6918633852337,566.3707935710697 757.4617771888396,579.2848037076311 784,569 C 810.5382228111604,558.7151962923689 839.8447546298752,525.2315787405449 864,517 C 888.1552453701248,508.76842125945507 907.1592042916601,525.7888813301894 927,515 C 946.8407957083399,504.2111186698106 967.5184282034843,465.6128959386977 996,480 C 1024.4815717965157,494.3871040613023 1060.767082894403,561.7595349150195 1086,587 C 1111.232917105597,612.2404650849805 1125.4132402189032,595.3489644012241 1149,569 C 1172.5867597810968,542.6510355987759 1205.5799562299849,506.84460748008416 1233,509 C 1260.4200437700151,511.15539251991584 1282.2669348611578,551.2726056784389 1302,556 C 1321.7330651388422,560.7273943215611 1339.3523043253833,530.0649698061602 1362,519 C 1384.6476956746167,507.93503019383974 1412.3238478373082,516.4675150969199 1440,525 C 1440,525 1440,700 1440,700 Z" stroke="none" stroke-width="0" fill="url(#gradient)" class="transition-all duration-300 ease-in-out delay-150 path-2" transform="rotate(-180 720 350)"></path></svg>